# xmcd
#
# Track frame offsets:
# 150
# 17362
# 35478
# 52188
# 67225
# 85043
# 101486
# 119884
# 137558
# 152353
# 170806
# 182033
# 196736
# 207489
# 222288
# 236992
# 254095
# 270239
# 284643
# 303989
# 319790
#
# Disc length: 4480 seconds
#
#
# Revision: 0
# Processed by: cddbd v1.5.2PL0 Copyright (c) Steve Scherf et al.
# Submitted via: Nero 7, 2, 0, 3 n
#
DISCID=40117e15
DTITLE=os federais - explosao
DYEAR=2011
DGENRE=Country
TTITLE0=explosao
TTITLE1=explosao
TTITLE2=explosao
TTITLE3=explosao
TTITLE4=explosao
TTITLE5=explosao
TTITLE6=explosao
TTITLE7=explosao
TTITLE8=explosao
TTITLE9=explosao
TTITLE10=explosao
TTITLE11=explosao
TTITLE12=explosao
TTITLE13=explosao
TTITLE14=explosao
TTITLE15=explosao
TTITLE16=explosao
TTITLE17=explosao
TTITLE18=explosao
TTITLE19=explosao
TTITLE20=explosao
EXTD=
EXTT0=n
EXTT1=n
EXTT2=n
EXTT3=n
EXTT4=n
EXTT5=n
EXTT6=n
EXTT7=n
EXTT8=n
EXTT9=n
EXTT10=n
EXTT11=n
EXTT12=n
EXTT13=n
EXTT14=n
EXTT15=n
EXTT16=n
EXTT17=n
EXTT18=n
EXTT19=n
EXTT20=n
PLAYORDER=
